<svg id="visual" viewBox="0 0 900 600" width="900" height="600" xmlns="http://www.w3.org/2000/svg" xmlns:xlink="http://www.w3.org/1999/xlink" version="1.1"><path d="M0 109L13.7 117C27.3 125 54.7 141 82 150C109.3 159 136.7 161 163.8 170C191 179 218 195 245.2 189C272.3 183 299.7 155 327 131C354.3 107 381.7 87 409 96C436.3 105 463.7 143 491 158C518.3 173 545.7 165 573 162C600.3 159 627.7 161 654.8 170C682 179 709 195 736.2 182C763.3 169 790.7 127 818 114C845.3 101 872.7 117 886.3 125L900 133L900 0L886.3 0C872.7 0 845.3 0 818 0C790.7 0 763.3 0 736.2 0C709 0 682 0 654.8 0C627.7 0 600.3 0 573 0C545.7 0 518.3 0 491 0C463.7 0 436.3 0 409 0C381.7 0 354.3 0 327 0C299.7 0 272.3 0 245.2 0C218 0 191 0 163.8 0C136.7 0 109.3 0 82 0C54.7 0 27.3 0 13.7 0L0 0Z" fill="#6198ff"></path><path d="M0 169L13.7 181C27.3 193 54.7 217 82 223C109.3 229 136.7 217 163.8 221C191 225 218 245 245.2 242C272.3 239 299.7 213 327 193C354.3 173 381.7 159 409 173C436.3 187 463.7 229 491 253C518.3 277 545.7 283 573 283C600.3 283 627.7 277 654.8 282C682 287 709 303 736.2 287C763.3 271 790.7 223 818 210C845.3 197 872.7 219 886.3 230L900 241L900 131L886.3 123C872.7 115 845.3 99 818 112C790.7 125 763.3 167 736.2 180C709 193 682 177 654.8 168C627.7 159 600.3 157 573 160C545.7 163 518.3 171 491 156C463.7 141 436.3 103 409 94C381.7 85 354.3 105 327 129C299.7 153 272.3 181 245.2 187C218 193 191 177 163.8 168C136.7 159 109.3 157 82 148C54.7 139 27.3 123 13.7 115L0 107Z" fill="#3c80ff"></path><path d="M0 397L13.7 401C27.3 405 54.7 413 82 419C109.3 425 136.7 429 163.8 424C191 419 218 405 245.2 405C272.3 405 299.7 419 327 413C354.3 407 381.7 381 409 381C436.3 381 463.7 407 491 419C518.3 431 545.7 429 573 430C600.3 431 627.7 435 654.8 445C682 455 709 471 736.2 472C763.3 473 790.7 459 818 446C845.3 433 872.7 421 886.3 415L900 409L900 239L886.3 228C872.7 217 845.3 195 818 208C790.7 221 763.3 269 736.2 285C709 301 682 285 654.8 280C627.7 275 600.3 281 573 281C545.7 281 518.3 275 491 251C463.7 227 436.3 185 409 171C381.7 157 354.3 171 327 191C299.7 211 272.3 237 245.2 240C218 243 191 223 163.8 219C136.7 215 109.3 227 82 221C54.7 215 27.3 191 13.7 179L0 167Z" fill="#0066ff"></path><path d="M0 469L13.7 476C27.3 483 54.7 497 82 500C109.3 503 136.7 495 163.8 481C191 467 218 447 245.2 455C272.3 463 299.7 499 327 503C354.3 507 381.7 479 409 478C436.3 477 463.7 503 491 505C518.3 507 545.7 485 573 480C600.3 475 627.7 487 654.8 500C682 513 709 527 736.2 532C763.3 537 790.7 533 818 524C845.3 515 872.7 501 886.3 494L900 487L900 407L886.3 413C872.7 419 845.3 431 818 444C790.7 457 763.3 471 736.2 470C709 469 682 453 654.8 443C627.7 433 600.3 429 573 428C545.7 427 518.3 429 491 417C463.7 405 436.3 379 409 379C381.7 379 354.3 405 327 411C299.7 417 272.3 403 245.2 403C218 403 191 417 163.8 422C136.7 427 109.3 423 82 417C54.7 411 27.3 403 13.7 399L0 395Z" fill="#0059dd"></path><path d="M0 601L13.7 601C27.3 601 54.7 601 82 601C109.3 601 136.7 601 163.8 601C191 601 218 601 245.2 601C272.3 601 299.7 601 327 601C354.3 601 381.7 601 409 601C436.3 601 463.7 601 491 601C518.3 601 545.7 601 573 601C600.3 601 627.7 601 654.8 601C682 601 709 601 736.2 601C763.3 601 790.7 601 818 601C845.3 601 872.7 601 886.3 601L900 601L900 485L886.3 492C872.7 499 845.3 513 818 522C790.7 531 763.3 535 736.2 530C709 525 682 511 654.8 498C627.7 485 600.3 473 573 478C545.7 483 518.3 505 491 503C463.7 501 436.3 475 409 476C381.7 477 354.3 505 327 501C299.7 497 272.3 461 245.2 453C218 445 191 465 163.8 479C136.7 493 109.3 501 82 498C54.7 495 27.3 481 13.7 474L0 467Z" fill="#004cbb"></path></svg>